<svg width="19" height="21" viewBox="0 0 19 21" fill="none" xmlns="http://www.w3.org/2000/svg">
<path fill-rule="evenodd" clip-rule="evenodd" d="M5.90625 13.125C5.90625 12.951 5.97539 12.784 6.09846 12.661C6.22153 12.5379 6.38845 12.4688 6.5625 12.4688H11.8125C11.9865 12.4688 12.1535 12.5379 12.2765 12.661C12.3996 12.784 12.4688 12.951 12.4688 13.125C12.4688 13.299 12.3996 13.466 12.2765 13.589C12.1535 13.7121 11.9865 13.7812 11.8125 13.7812H6.5625C6.38845 13.7812 6.22153 13.7121 6.09846 13.589C5.97539 13.466 5.90625 13.299 5.90625 13.125Z" fill="#757575"/>
<path d="M9.1875 1.3125C10.0577 1.3125 10.8923 1.6582 11.5077 2.27356C12.123 2.88891 12.4688 3.72351 12.4688 4.59375V5.25H5.90625V4.59375C5.90625 3.72351 6.25195 2.88891 6.86731 2.27356C7.48266 1.6582 8.31726 1.3125 9.1875 1.3125ZM13.7812 5.25V4.59375C13.7812 3.37541 13.2973 2.20697 12.4358 1.34548C11.5743 0.483983 10.4058 0 9.1875 0C7.96916 0 6.80072 0.483983 5.93923 1.34548C5.07773 2.20697 4.59375 3.37541 4.59375 4.59375V5.25H0V18.375C0 19.0712 0.276562 19.7389 0.768845 20.2312C1.26113 20.7234 1.92881 21 2.625 21H15.75C16.4462 21 17.1139 20.7234 17.6062 20.2312C18.0984 19.7389 18.375 19.0712 18.375 18.375V5.25H13.7812ZM1.3125 6.5625H17.0625V18.375C17.0625 18.7231 16.9242 19.0569 16.6781 19.3031C16.4319 19.5492 16.0981 19.6875 15.75 19.6875H2.625C2.2769 19.6875 1.94306 19.5492 1.69692 19.3031C1.45078 19.0569 1.3125 18.7231 1.3125 18.375V6.5625Z" fill="#757575"/>
</svg>
