<svg width="24" height="24" viewBox="0 0 24 24" fill="none" xmlns="http://www.w3.org/2000/svg">
<path d="M23.375 7.93756C23.375 7.29109 23.1182 6.67111 22.6611 6.21399C22.204 5.75687 21.584 5.50006 20.9375 5.50006H19.0038L16.7856 1.07194C16.7427 0.968791 16.6789 0.875614 16.5983 0.798227C16.5177 0.720839 16.422 0.660905 16.3172 0.622169C16.2124 0.583434 16.1008 0.566729 15.9892 0.573099C15.8777 0.579469 15.7687 0.608777 15.6689 0.659192C15.5692 0.709607 15.481 0.780044 15.4097 0.866103C15.3385 0.952162 15.2857 1.05199 15.2548 1.15936C15.2239 1.26672 15.2154 1.37931 15.23 1.49009C15.2445 1.60086 15.2818 1.70745 15.3394 1.80319L17.1838 5.50006H6.81625L8.66063 1.80319C8.73949 1.6138 8.74379 1.40158 8.67267 1.20916C8.60154 1.01673 8.46026 0.858326 8.27718 0.765757C8.0941 0.673188 7.88277 0.653304 7.68564 0.710096C7.4885 0.766888 7.32015 0.896151 7.21438 1.07194L4.99625 5.50006H3.0625C2.41604 5.50006 1.79605 5.75687 1.33893 6.21399C0.881809 6.67111 0.625002 7.29109 0.625002 7.93756C0.624552 8.28105 0.696704 8.62075 0.836726 8.9344C0.976749 9.24805 1.18148 9.52857 1.4375 9.75756L3.0625 20.2388C3.26683 21.1537 3.78495 21.9682 4.52699 22.5411C5.26903 23.1139 6.18818 23.409 7.125 23.3751H16.875C17.8118 23.409 18.731 23.1139 19.473 22.5411C20.215 21.9682 20.7332 21.1537 20.9375 20.2388L22.5625 9.75756C22.8185 9.52857 23.0233 9.24805 23.1633 8.9344C23.3033 8.62075 23.3755 8.28105 23.375 7.93756ZM3.0625 7.12506H20.9375C21.153 7.12506 21.3597 7.21066 21.512 7.36304C21.6644 7.51541 21.75 7.72207 21.75 7.93756C21.75 8.15305 21.6644 8.35971 21.512 8.51208C21.3597 8.66446 21.153 8.75006 20.9375 8.75006H3.0625C2.84701 8.75006 2.64035 8.66446 2.48798 8.51208C2.3356 8.35971 2.25 8.15305 2.25 7.93756C2.25 7.72207 2.3356 7.51541 2.48798 7.36304C2.64035 7.21066 2.84701 7.12506 3.0625 7.12506ZM19.3613 19.9951C19.2074 20.5262 18.8775 20.9893 18.4257 21.3082C17.9739 21.6272 17.427 21.783 16.875 21.7501H7.125C6.5676 21.7906 6.01318 21.6384 5.55464 21.3189C5.09609 20.9994 4.76126 20.532 4.60625 19.9951L3.1925 10.3751H20.8075L19.3613 19.9951Z" fill="black"/>
<path d="M12 20.125C12.2155 20.125 12.4222 20.0394 12.5745 19.887C12.7269 19.7347 12.8125 19.528 12.8125 19.3125V12.8125C12.8125 12.597 12.7269 12.3903 12.5745 12.238C12.4222 12.0856 12.2155 12 12 12C11.7845 12 11.5778 12.0856 11.4255 12.238C11.2731 12.3903 11.1875 12.597 11.1875 12.8125V19.3125C11.1875 19.528 11.2731 19.7347 11.4255 19.887C11.5778 20.0394 11.7845 20.125 12 20.125Z" fill="black"/>
<path d="M16.0625 19.3125C16.278 19.3125 16.4847 19.2269 16.637 19.0745C16.7894 18.9222 16.875 18.7155 16.875 18.5V13.625C16.875 13.4095 16.7894 13.2028 16.637 13.0505C16.4847 12.8981 16.278 12.8125 16.0625 12.8125C15.847 12.8125 15.6403 12.8981 15.488 13.0505C15.3356 13.2028 15.25 13.4095 15.25 13.625V18.5C15.25 18.7155 15.3356 18.9222 15.488 19.0745C15.6403 19.2269 15.847 19.3125 16.0625 19.3125Z" fill="black"/>
<path d="M7.9375 19.3125C8.15299 19.3125 8.35965 19.2269 8.51202 19.0745C8.6644 18.9222 8.75 18.7155 8.75 18.5V13.625C8.75 13.4095 8.6644 13.2028 8.51202 13.0505C8.35965 12.8981 8.15299 12.8125 7.9375 12.8125C7.72201 12.8125 7.51535 12.8981 7.36298 13.0505C7.2106 13.2028 7.125 13.4095 7.125 13.625V18.5C7.125 18.7155 7.2106 18.9222 7.36298 19.0745C7.51535 19.2269 7.72201 19.3125 7.9375 19.3125Z" fill="black"/>
</svg>
