<svg width="18" height="24" viewBox="0 0 18 24" fill="none" xmlns="http://www.w3.org/2000/svg">
<path d="M14.6225 0.625H3.3775C2.7138 0.625 2.07728 0.888655 1.60797 1.35797C1.13866 1.82728 0.875 2.4638 0.875 3.1275V22.5625C0.875025 22.7059 0.913007 22.8468 0.985088 22.9707C1.05717 23.0947 1.16078 23.1974 1.28539 23.2684C1.41001 23.3394 1.55119 23.3761 1.6946 23.3748C1.838 23.3736 1.97852 23.3344 2.10188 23.2612L5.70125 21.1L8.5125 23.2125C8.65314 23.318 8.8242 23.375 9 23.375C9.1758 23.375 9.34686 23.318 9.4875 23.2125L12.2987 21.1L15.8981 23.2612C16.0215 23.3344 16.162 23.3736 16.3054 23.3748C16.4488 23.3761 16.59 23.3394 16.7146 23.2684C16.8392 23.1974 16.9428 23.0947 17.0149 22.9707C17.087 22.8468 17.125 22.7059 17.125 22.5625V3.1275C17.125 2.4638 16.8613 1.82728 16.392 1.35797C15.9227 0.888655 15.2862 0.625 14.6225 0.625ZM15.5 21.1244L12.6644 19.4263C12.5261 19.3442 12.3666 19.3051 12.206 19.3138C12.0455 19.3224 11.8911 19.3786 11.7625 19.475L9 21.5469L6.2375 19.475C6.09686 19.3695 5.9258 19.3125 5.75 19.3125C5.60417 19.3125 5.46104 19.3518 5.33562 19.4263L2.5 21.1244V3.1275C2.5 2.89477 2.59245 2.67158 2.75701 2.50701C2.92158 2.34245 3.14477 2.25 3.3775 2.25H14.6225C14.8552 2.25 15.0784 2.34245 15.243 2.50701C15.4075 2.67158 15.5 2.89477 15.5 3.1275V21.1244Z" fill="black"/>
<path d="M4.9375 7.9375H9C9.21549 7.9375 9.42215 7.8519 9.57452 7.69952C9.7269 7.54715 9.8125 7.34049 9.8125 7.125C9.8125 6.90951 9.7269 6.70285 9.57452 6.55048C9.42215 6.3981 9.21549 6.3125 9 6.3125H4.9375C4.72201 6.3125 4.51535 6.3981 4.36298 6.55048C4.2106 6.70285 4.125 6.90951 4.125 7.125C4.125 7.34049 4.2106 7.54715 4.36298 7.69952C4.51535 7.8519 4.72201 7.9375 4.9375 7.9375Z" fill="black"/>
<path d="M13.0625 10.375H4.9375C4.72201 10.375 4.51535 10.4606 4.36298 10.613C4.2106 10.7653 4.125 10.972 4.125 11.1875C4.125 11.403 4.2106 11.6097 4.36298 11.762C4.51535 11.9144 4.72201 12 4.9375 12H13.0625C13.278 12 13.4847 11.9144 13.637 11.762C13.7894 11.6097 13.875 11.403 13.875 11.1875C13.875 10.972 13.7894 10.7653 13.637 10.613C13.4847 10.4606 13.278 10.375 13.0625 10.375Z" fill="black"/>
<path d="M13.0625 14.4375H4.9375C4.72201 14.4375 4.51535 14.5231 4.36298 14.6755C4.2106 14.8278 4.125 15.0345 4.125 15.25C4.125 15.4655 4.2106 15.6722 4.36298 15.8245C4.51535 15.9769 4.72201 16.0625 4.9375 16.0625H13.0625C13.278 16.0625 13.4847 15.9769 13.637 15.8245C13.7894 15.6722 13.875 15.4655 13.875 15.25C13.875 15.0345 13.7894 14.8278 13.637 14.6755C13.4847 14.5231 13.278 14.4375 13.0625 14.4375Z" fill="black"/>
</svg>
