<svg width="40" height="40" viewBox="0 0 40 40" fill="none" xmlns="http://www.w3.org/2000/svg">
<circle cx="20" cy="20" r="20" fill="black"/>
<path d="M20.0027 13.8467C16.6028 13.836 13.84 16.5886 13.8293 19.9893C13.8186 23.3899 16.5707 26.1533 19.9706 26.164C23.3704 26.1747 26.1332 23.4221 26.1439 20.0214C26.1546 16.6208 23.4026 13.8574 20.0027 13.8467ZM19.9706 16.0103C22.1765 15.9996 23.9701 17.7829 23.9808 19.9893C23.9915 22.1957 22.2086 23.9897 20.0027 24.0004C17.7968 24.0112 16.0031 22.2278 15.9924 20.0214C15.9817 17.815 17.7646 16.021 19.9706 16.0103ZM24.9713 13.595C24.9713 12.8024 25.6138 12.1598 26.4062 12.1598C27.1987 12.1598 27.8412 12.8024 27.8412 13.595C27.8412 14.3876 27.1987 15.0302 26.4062 15.0302C25.6138 15.0302 24.9713 14.3876 24.9713 13.595ZM31.9157 15.0517C31.8247 13.1291 31.3856 11.4261 29.9775 10.023C28.5747 8.61988 26.8721 8.18074 24.9499 8.08435C22.9689 7.97188 17.0311 7.97188 15.0501 8.08435C13.1333 8.17539 11.4307 8.61453 10.0225 10.0176C8.61439 11.4207 8.1807 13.1237 8.08433 15.0463C7.97189 17.0278 7.97189 22.9669 8.08433 24.9483C8.17535 26.8709 8.61439 28.5739 10.0225 29.977C11.4307 31.3801 13.1279 31.8193 15.0501 31.9157C17.0311 32.0281 22.9689 32.0281 24.9499 31.9157C26.8721 31.8246 28.5747 31.3855 29.9775 29.977C31.3803 28.5739 31.8193 26.8709 31.9157 24.9483C32.0281 22.9669 32.0281 17.0331 31.9157 15.0517ZM29.3564 27.0744C28.9388 28.1241 28.1303 28.9327 27.0755 29.3558C25.496 29.9824 21.7481 29.8378 20.0027 29.8378C18.2572 29.8378 14.504 29.977 12.9298 29.3558C11.8804 28.9381 11.0719 28.1294 10.649 27.0744C10.0225 25.4946 10.1671 21.7458 10.1671 20C10.1671 18.2542 10.0279 14.5001 10.649 12.9256C11.0666 11.8759 11.8751 11.0673 12.9298 10.6442C14.5093 10.0176 18.2572 10.1622 20.0027 10.1622C21.7481 10.1622 25.5014 10.023 27.0755 10.6442C28.1249 11.0619 28.9334 11.8706 29.3564 12.9256C29.9828 14.5054 29.8383 18.2542 29.8383 20C29.8383 21.7458 29.9828 25.4999 29.3564 27.0744Z" fill="white"/>
</svg>
