<svg width="24" height="23" viewBox="0 0 24 23" fill="none" xmlns="http://www.w3.org/2000/svg">
<path d="M22.9769 16.4362C22.7058 16.0605 22.3301 15.773 21.8965 15.6097C21.463 15.4464 20.9909 15.4146 20.5394 15.5181L15.3881 16.745C15.0801 16.8101 14.7618 16.8101 14.4538 16.745L11.9594 16.2656C11.8349 16.247 11.7207 16.1858 11.6363 16.0924C11.5519 15.9991 11.5024 15.8794 11.4963 15.7537C11.5004 15.68 11.519 15.6079 11.5511 15.5415C11.5832 15.475 11.6281 15.4156 11.6832 15.3665C11.7383 15.3175 11.8025 15.2797 11.8722 15.2556C11.9419 15.2314 12.0157 15.2212 12.0894 15.2256H12.8125C13.3512 15.2256 13.8679 15.0116 14.2488 14.6306C14.6297 14.2497 14.8438 13.7331 14.8438 13.1943C14.8438 12.6556 14.6297 12.139 14.2488 11.758C13.8679 11.3771 13.3512 11.1631 12.8125 11.1631H10.4644C9.94086 11.1633 9.42039 11.2428 8.92062 11.3987L5.44312 12.5281C5.38551 12.3739 5.2824 12.2408 5.14747 12.1465C5.01253 12.0522 4.85213 12.0011 4.6875 12H1.4375C1.22201 12 1.01535 12.0856 0.862976 12.2379C0.710602 12.3903 0.625 12.597 0.625 12.8125V21.75C0.625 21.9654 0.710602 22.1721 0.862976 22.3245C1.01535 22.4769 1.22201 22.5625 1.4375 22.5625H4.6875C4.88836 22.5637 5.08256 22.4905 5.2326 22.3569C5.38265 22.2234 5.47791 22.039 5.5 21.8393L10.1312 22.3268C10.5466 22.3753 10.9644 22.3997 11.3825 22.4C12.4831 22.3959 13.5776 22.2345 14.6325 21.9206L21.75 19.8487C22.0972 19.7453 22.4154 19.5621 22.6792 19.3138C22.943 19.0655 23.1451 18.759 23.2694 18.4187C23.3823 18.0889 23.4146 17.7368 23.3637 17.392C23.3128 17.0471 23.1802 16.7194 22.9769 16.4362ZM3.875 20.9375H2.25V13.625H3.875V20.9375ZM21.75 17.8825C21.7146 17.9816 21.6553 18.0706 21.5773 18.1414C21.4994 18.2123 21.4052 18.2629 21.3031 18.2887L14.1938 20.3606C12.9271 20.735 11.5992 20.8565 10.2856 20.7181L5.5 20.2062V14.2181L9.41625 12.975C9.75529 12.8676 10.1088 12.8128 10.4644 12.8125H12.8125C12.9202 12.8125 13.0236 12.8553 13.0998 12.9314C13.1759 13.0076 13.2188 13.111 13.2188 13.2187C13.2188 13.3265 13.1759 13.4298 13.0998 13.506C13.0236 13.5822 12.9202 13.625 12.8125 13.625H12.0894C11.5348 13.5888 10.9879 13.7692 10.5637 14.1283C10.1396 14.4874 9.87135 14.997 9.81553 15.55C9.75971 16.1029 9.92066 16.6559 10.2645 17.0925C10.6083 17.5291 11.1082 17.8152 11.6587 17.8906L14.145 18.3618C14.6807 18.4757 15.2343 18.4757 15.77 18.3618L20.9131 17.1268C21.0535 17.0922 21.2009 17.1 21.3369 17.1492C21.4728 17.1983 21.5911 17.2867 21.6769 17.4031C21.7242 17.4724 21.7553 17.5515 21.7679 17.6345C21.7806 17.7174 21.7745 17.8022 21.75 17.8825Z" fill="black"/>
<path d="M10.83 10.375H20.4825C21.0342 10.375 21.5632 10.1559 21.9533 9.76578C22.3434 9.37571 22.5625 8.84665 22.5625 8.295V2.705C22.5625 2.15335 22.3434 1.62429 21.9533 1.23422C21.5632 0.844142 21.0342 0.625 20.4825 0.625H10.83C10.2783 0.625 9.74929 0.844142 9.35922 1.23422C8.96914 1.62429 8.75 2.15335 8.75 2.705V8.295C8.75 8.84665 8.96914 9.37571 9.35922 9.76578C9.74929 10.1559 10.2783 10.375 10.83 10.375ZM20.9375 8.295C20.9375 8.41567 20.8896 8.5314 20.8042 8.61673C20.7189 8.70206 20.6032 8.75 20.4825 8.75H10.83C10.7093 8.75 10.5936 8.70206 10.5083 8.61673C10.4229 8.5314 10.375 8.41567 10.375 8.295V4.6875H20.9375V8.295ZM10.375 2.705C10.375 2.58433 10.4229 2.4686 10.5083 2.38327C10.5936 2.29794 10.7093 2.25 10.83 2.25H20.4825C20.6032 2.25 20.7189 2.29794 20.8042 2.38327C20.8896 2.4686 20.9375 2.58433 20.9375 2.705V3.0625H10.375V2.705Z" fill="black"/>
<path d="M17.6875 7.9375H18.5C18.7155 7.9375 18.9222 7.8519 19.0745 7.69952C19.2269 7.54715 19.3125 7.34049 19.3125 7.125C19.3125 6.90951 19.2269 6.70285 19.0745 6.55048C18.9222 6.3981 18.7155 6.3125 18.5 6.3125H17.6875C17.472 6.3125 17.2653 6.3981 17.113 6.55048C16.9606 6.70285 16.875 6.90951 16.875 7.125C16.875 7.34049 16.9606 7.54715 17.113 7.69952C17.2653 7.8519 17.472 7.9375 17.6875 7.9375Z" fill="black"/>
</svg>
