<svg width="117" height="117" viewBox="0 0 117 117" fill="none" xmlns="http://www.w3.org/2000/svg">
<path fill-rule="evenodd" clip-rule="evenodd" d="M37.1094 71.6875C37.1094 70.9623 37.3975 70.2668 37.9103 69.754C38.4231 69.2412 39.1185 68.9531 39.8438 68.9531H61.7188C62.444 68.9531 63.1395 69.2412 63.6522 69.754C64.165 70.2668 64.4531 70.9623 64.4531 71.6875C64.4531 72.4127 64.165 73.1082 63.6522 73.621C63.1395 74.1338 62.444 74.4219 61.7188 74.4219H39.8438C39.1185 74.4219 38.4231 74.1338 37.9103 73.621C37.3975 73.1082 37.1094 72.4127 37.1094 71.6875Z" fill="#757575"/>
<path d="M50.7812 22.4688C54.4073 22.4688 57.8848 23.9092 60.4487 26.4731C63.0127 29.0371 64.4531 32.5146 64.4531 36.1406V38.875H37.1094V36.1406C37.1094 32.5146 38.5498 29.0371 41.1138 26.4731C43.6777 23.9092 47.1552 22.4688 50.7812 22.4688ZM69.9219 38.875V36.1406C69.9219 31.0642 67.9053 26.1957 64.3157 22.6062C60.7262 19.0166 55.8577 17 50.7812 17C45.7048 17 40.8363 19.0166 37.2468 22.6062C33.6572 26.1957 31.6406 31.0642 31.6406 36.1406V38.875H12.5V93.5625C12.5 96.4633 13.6523 99.2453 15.7035 101.296C17.7547 103.348 20.5367 104.5 23.4375 104.5H78.125C81.0258 104.5 83.8078 103.348 85.859 101.296C87.9102 99.2453 89.0625 96.4633 89.0625 93.5625V38.875H69.9219ZM17.9688 44.3438H83.5938V93.5625C83.5938 95.0129 83.0176 96.4039 81.992 97.4295C80.9664 98.4551 79.5754 99.0312 78.125 99.0312H23.4375C21.9871 99.0312 20.5961 98.4551 19.5705 97.4295C18.5449 96.4039 17.9688 95.0129 17.9688 93.5625V44.3438Z" fill="#757575"/>
<path d="M87 54C100.256 54 111 43.2562 111 30C111 16.7438 100.256 6 87 6C73.7438 6 63 16.7438 63 30C63 43.2562 73.7438 54 87 54ZM94.9125 25.9406L87.4125 37.9406C87.0187 38.5688 86.3438 38.9625 85.6031 39C84.8625 39.0375 84.15 38.7 83.7094 38.1L79.2094 32.1C78.4594 31.1062 78.6656 29.7 79.6594 28.95C80.6531 28.2 82.0594 28.4062 82.8094 29.4L85.3406 32.775L91.0969 23.5594C91.7531 22.5094 93.1406 22.1812 94.2 22.8469C95.2594 23.5125 95.5781 24.8906 94.9125 25.95V25.9406Z" fill="#4AB052"/>
</svg>
