<svg width="10" height="8" viewBox="0 0 10 8" fill="none" xmlns="http://www.w3.org/2000/svg">
<path d="M1.10001 0.399902C0.603137 0.399902 0.200012 0.803027 0.200012 1.2999C0.200012 1.58303 0.333137 1.84928 0.560012 2.0199L4.46001 4.9449C4.78064 5.1849 5.21939 5.1849 5.54001 4.9449L9.44001 2.0199C9.66689 1.84928 9.80001 1.58303 9.80001 1.2999C9.80001 0.803027 9.39689 0.399902 8.90001 0.399902H1.10001ZM0.200012 2.8749V6.3999C0.200012 7.06178 0.738137 7.5999 1.40001 7.5999H8.60001C9.26189 7.5999 9.80001 7.06178 9.80001 6.3999V2.8749L6.08001 5.6649C5.44064 6.1449 4.55939 6.1449 3.92001 5.6649L0.200012 2.8749Z" fill="black"/>
</svg>
