<svg width="22" height="18" viewBox="0 0 22 18" fill="none" xmlns="http://www.w3.org/2000/svg">
<path d="M19.125 8.63438L18.3125 8.47188C18.3292 8.37782 18.3292 8.28155 18.3125 8.1875V7.375C18.3125 5.4356 17.5421 3.57564 16.1707 2.20428C14.7994 0.832922 12.9394 0.0625 11 0.0625C9.06063 0.0625 7.20066 0.832922 5.8293 2.20428C4.45794 3.57564 3.68752 5.4356 3.68752 7.375V8.1875C3.68927 8.28493 3.70854 8.38126 3.7444 8.47188L2.9319 8.63438C2.16499 8.78109 1.48398 9.21739 1.03014 9.85276C0.576298 10.4881 0.384452 11.2738 0.494396 12.0469L0.827521 14.3138C0.91817 14.9388 1.20182 15.5199 1.63884 15.9758C2.07585 16.4318 2.6444 16.7398 3.26502 16.8569L4.40252 17.125C4.52824 17.1506 4.65611 17.1642 4.7844 17.1656C5.28707 17.1522 5.76602 16.949 6.12502 16.5969C6.34859 16.3934 6.52157 16.1405 6.63018 15.8584C6.7388 15.5763 6.78005 15.2727 6.75065 14.9719L6.12502 8.91063C6.10293 8.71098 6.00767 8.52659 5.85762 8.39305C5.70758 8.25951 5.51338 8.18628 5.31252 8.1875V7.375C5.31252 5.86658 5.91174 4.41994 6.97835 3.35333C8.04496 2.28672 9.4916 1.6875 11 1.6875C12.5084 1.6875 13.9551 2.28672 15.0217 3.35333C16.0883 4.41994 16.6875 5.86658 16.6875 7.375V8.1875C16.4962 8.19547 16.3138 8.27077 16.1726 8.4001C16.0314 8.52943 15.9404 8.70448 15.9156 8.89437L15.3794 13.6475H15.2656C14.9118 13.7919 14.5307 13.8572 14.149 13.839C13.7672 13.8207 13.3941 13.7193 13.0556 13.5419L13.2019 13.3956C13.3532 13.2434 13.4382 13.0375 13.4382 12.8228C13.4382 12.6082 13.3532 12.4022 13.2019 12.25C13.1264 12.1738 13.0365 12.1134 12.9375 12.0722C12.8385 12.0309 12.7323 12.0097 12.625 12.0097C12.5178 12.0097 12.4116 12.0309 12.3126 12.0722C12.2135 12.1134 12.1237 12.1738 12.0481 12.25L10.4231 13.875C10.2718 14.0272 10.1869 14.2332 10.1869 14.4478C10.1869 14.6625 10.2718 14.8684 10.4231 15.0206C10.4987 15.0968 10.5885 15.1572 10.6876 15.1985C10.7866 15.2397 10.8928 15.261 11 15.261C11.1073 15.261 11.2135 15.2397 11.3125 15.1985C11.4115 15.1572 11.5014 15.0968 11.5769 15.0206L11.8694 14.7281C12.5695 15.2145 13.3977 15.4831 14.25 15.5C14.5758 15.4955 14.9001 15.4546 15.2169 15.3781C15.2646 15.8469 15.4847 16.2812 15.8344 16.5969C16.2038 16.9379 16.6885 17.1266 17.1913 17.125C17.3196 17.1235 17.4474 17.1099 17.5731 17.0844L18.7269 16.8569C19.3475 16.7398 19.9161 16.4318 20.3531 15.9758C20.7901 15.5199 21.0737 14.9388 21.1644 14.3138L21.5625 12.0469C21.6725 11.2738 21.4806 10.4881 21.0268 9.85276C20.5729 9.21739 19.8919 8.78109 19.125 8.63438ZM5.0444 15.4025C5.00013 15.4431 4.94675 15.4724 4.88876 15.4879C4.83077 15.5035 4.76989 15.5048 4.71127 15.4919L3.55752 15.2644C3.26597 15.2106 2.99833 15.0676 2.79163 14.8551C2.58493 14.6426 2.44939 14.3711 2.40377 14.0781L2.06252 11.8112C2.01487 11.4496 2.10806 11.0834 2.3228 10.7885C2.53755 10.4936 2.85743 10.2925 3.21627 10.2269L4.54877 9.96688L5.13377 15.1263C5.14197 15.1761 5.13813 15.2272 5.12259 15.2752C5.10704 15.3233 5.08023 15.3669 5.0444 15.4025ZM19.9375 11.8112L19.6125 14.0781C19.5669 14.3711 19.4314 14.6426 19.2247 14.8551C19.018 15.0676 18.7503 15.2106 18.4588 15.2644L17.2888 15.5C17.2301 15.513 17.1693 15.5116 17.1113 15.496C17.0533 15.4805 16.9999 15.4512 16.9556 15.4106C16.9169 15.3766 16.887 15.3337 16.8686 15.2856C16.8502 15.2374 16.8438 15.1855 16.85 15.1344L17.435 9.975L18.7675 10.235C19.1278 10.297 19.4503 10.4953 19.6682 10.7888C19.886 11.0823 19.9825 11.4485 19.9375 11.8112Z" fill="black"/>
</svg>
