<svg width="20" height="24" viewBox="0 0 20 24" fill="none" xmlns="http://www.w3.org/2000/svg">
<path d="M19.1244 21.2543L16.5651 16.7775C16.4412 16.5612 16.2626 16.3813 16.0473 16.2558C15.8319 16.1303 15.5874 16.0637 15.3382 16.0625H13.6563C14.4263 14.8746 15.0845 13.618 15.6226 12.3087C16.0379 11.3103 16.3827 10.2841 16.6544 9.23745C16.9174 8.22152 16.9443 7.15885 16.7331 6.1309C16.5218 5.10296 16.078 4.13704 15.4356 3.30719C14.7932 2.47734 13.9694 1.80559 13.0272 1.34343C12.085 0.881278 11.0495 0.640991 10.0001 0.640991C8.95063 0.640991 7.91514 0.881278 6.97295 1.34343C6.03077 1.80559 5.20691 2.47734 4.56453 3.30719C3.92216 4.13704 3.47832 5.10296 3.26705 6.1309C3.05578 7.15885 3.08268 8.22152 3.34569 9.23745C3.61739 10.2841 3.96219 11.3103 4.37756 12.3087C4.9189 13.6165 5.57698 14.8728 6.34381 16.0625H4.66194C4.41271 16.0637 4.16818 16.1303 3.95285 16.2558C3.73752 16.3813 3.55896 16.5612 3.43506 16.7775L0.875686 21.2543C0.751603 21.4692 0.686279 21.713 0.686279 21.9612C0.686279 22.2094 0.751603 22.4532 0.875686 22.6681C0.998696 22.8845 1.17728 23.0641 1.39297 23.1884C1.60866 23.3127 1.85364 23.3771 2.10256 23.375H17.8976C18.1465 23.3771 18.3915 23.3127 18.6071 23.1884C18.8228 23.0641 19.0014 22.8845 19.1244 22.6681C19.2485 22.4532 19.3138 22.2094 19.3138 21.9612C19.3138 21.713 19.2485 21.4692 19.1244 21.2543ZM4.92194 8.8312C4.71997 8.05179 4.69918 7.23647 4.86114 6.44778C5.02311 5.65908 5.36353 4.91795 5.85631 4.2812C6.34607 3.64865 6.97416 3.13661 7.69242 2.78434C8.41068 2.43208 9.20006 2.24892 10.0001 2.24892C10.8001 2.24892 11.5894 2.43208 12.3077 2.78434C13.026 3.13661 13.654 3.64865 14.1438 4.2812C14.6366 4.91795 14.977 5.65908 15.139 6.44778C15.3009 7.23647 15.2801 8.05179 15.0782 8.8312C14.8263 9.80491 14.5087 10.7604 14.1276 11.6912C13.144 14.0663 11.7465 16.2479 10.0001 18.1343C8.25361 16.2479 6.85607 14.0663 5.87256 11.6912C5.49145 10.7604 5.17384 9.80491 4.92194 8.8312ZM2.46006 21.75L4.78381 17.6875H7.49756C8.09514 18.459 8.73815 19.1943 9.42319 19.8893C9.49872 19.9655 9.58858 20.0259 9.68759 20.0672C9.7866 20.1084 9.8928 20.1297 10.0001 20.1297C10.1073 20.1297 10.2135 20.1084 10.3125 20.0672C10.4115 20.0259 10.5014 19.9655 10.5769 19.8893C11.262 19.1943 11.905 18.459 12.5026 17.6875H15.2163L17.5401 21.75H2.46006Z" fill="black"/>
<path d="M13.25 7.9375C13.25 7.29471 13.0594 6.66636 12.7023 6.1319C12.3452 5.59744 11.8376 5.18088 11.2437 4.93489C10.6499 4.68891 9.9964 4.62455 9.36596 4.74995C8.73552 4.87535 8.15643 5.18488 7.7019 5.6394C7.24738 6.09392 6.93785 6.67302 6.81245 7.30346C6.68705 7.9339 6.75141 8.58736 6.99739 9.18122C7.24338 9.77508 7.65994 10.2827 8.1944 10.6398C8.72886 10.9969 9.35721 11.1875 10 11.1875C10.862 11.1875 11.6886 10.8451 12.2981 10.2356C12.9076 9.62611 13.25 8.79946 13.25 7.9375ZM8.375 7.9375C8.375 7.61611 8.47031 7.30193 8.64886 7.0347C8.82742 6.76747 9.08121 6.55919 9.37814 6.4362C9.67507 6.3132 10.0018 6.28102 10.317 6.34373C10.6322 6.40643 10.9218 6.56119 11.1491 6.78845C11.3763 7.01571 11.5311 7.30526 11.5938 7.62048C11.6565 7.9357 11.6243 8.26243 11.5013 8.55936C11.3783 8.85629 11.17 9.11008 10.9028 9.28864C10.6356 9.4672 10.3214 9.5625 10 9.5625C9.56903 9.5625 9.1557 9.3913 8.85095 9.08655C8.54621 8.7818 8.375 8.36848 8.375 7.9375Z" fill="black"/>
</svg>
