<svg width="10" height="10" viewBox="0 0 10 10" fill="none" xmlns="http://www.w3.org/2000/svg">
<path d="M3.20372 0.668685C3.0556 0.31431 2.66935 0.12681 2.30185 0.226185L2.19872 0.25431C0.987472 0.58431 -0.0475282 1.75806 0.254347 3.18681C0.949972 6.46806 3.53185 9.04993 6.8131 9.74556C8.24372 10.0493 9.4156 9.01243 9.7456 7.80118L9.77372 7.69806C9.87497 7.32868 9.6856 6.94243 9.3331 6.79618L7.50872 6.03681C7.19935 5.90743 6.84122 5.99744 6.62747 6.25806L5.90372 7.14306C4.5856 6.48868 3.52435 5.39368 2.91497 4.04931L3.74372 3.37431C4.00435 3.16243 4.09247 2.80431 3.96497 2.49306L3.20372 0.668685Z" fill="black"/>
</svg>
