<svg width="26" height="26" viewBox="0 0 26 26" fill="none" xmlns="http://www.w3.org/2000/svg">
<path d="M24.7656 4.76562C25.7422 3.78906 25.7422 2.20312 24.7656 1.22656C23.7891 0.25 22.2031 0.25 21.2266 1.22656L13 9.46094L4.76562 1.23437C3.78906 0.257812 2.20312 0.257812 1.22656 1.23437C0.25 2.21094 0.25 3.79687 1.22656 4.77344L9.46094 13L1.23438 21.2344C0.257813 22.2109 0.257813 23.7969 1.23438 24.7734C2.21094 25.75 3.79687 25.75 4.77344 24.7734L13 16.5391L21.2344 24.7656C22.2109 25.7422 23.7969 25.7422 24.7734 24.7656C25.75 23.7891 25.75 22.2031 24.7734 21.2266L16.5391 13L24.7656 4.76562Z" fill="black"/>
</svg>
