<svg width="40" height="40" viewBox="0 0 40 40" fill="none" xmlns="http://www.w3.org/2000/svg">
<circle cx="20" cy="20" r="20" fill="black"/>
<path d="M31.4947 14.6294C31.2223 13.5925 30.405 12.7788 29.3724 12.5031C27.5049 12 20 12 20 12C20 12 12.4951 12 10.6232 12.5031C9.59063 12.7788 8.77774 13.5925 8.50092 14.6294C8 16.5063 8 20.4175 8 20.4175C8 20.4175 8 24.3288 8.50092 26.2056C8.77774 27.2381 9.59063 28.0212 10.6232 28.2969C12.4951 28.8 20 28.8 20 28.8C20 28.8 27.5049 28.8 29.3768 28.2969C30.4094 28.0212 31.2223 27.2381 31.4991 26.2056C32 24.3288 32 20.4175 32 20.4175C32 20.4175 32 16.5063 31.4991 14.6294H31.4947ZM17.5438 23.97V16.865L23.814 20.4175L17.5438 23.97Z" fill="white"/>
</svg>
